<svg width="936" height="897" viewBox="0 0 936 897" fill="none" xmlns="http://www.w3.org/2000/svg">
<path d="M492.156 61.1094H465.156V89H451.094V20.75H495.531V32.1406H465.156V49.7656H492.156V61.1094ZM530.594 89C529.969 87.7812 529.516 86.2656 529.234 84.4531C525.953 88.1094 521.688 89.9375 516.438 89.9375C511.469 89.9375 507.344 88.5 504.062 85.625C500.812 82.75 499.188 79.125 499.188 74.75C499.188 69.375 501.172 65.25 505.141 62.375C509.141 59.5 514.906 58.0469 522.438 58.0156H528.672V55.1094C528.672 52.7656 528.062 50.8906 526.844 49.4844C525.656 48.0781 523.766 47.375 521.172 47.375C518.891 47.375 517.094 47.9219 515.781 49.0156C514.5 50.1094 513.859 51.6094 513.859 53.5156H500.312C500.312 50.5781 501.219 47.8594 503.031 45.3594C504.844 42.8594 507.406 40.9062 510.719 39.5C514.031 38.0625 517.75 37.3438 521.875 37.3438C528.125 37.3438 533.078 38.9219 536.734 42.0781C540.422 45.2031 542.266 49.6094 542.266 55.2969V77.2812C542.297 82.0938 542.969 85.7344 544.281 88.2031V89H530.594ZM519.391 79.5781C521.391 79.5781 523.234 79.1406 524.922 78.2656C526.609 77.3594 527.859 76.1562 528.672 74.6562V65.9375H523.609C516.828 65.9375 513.219 68.2812 512.781 72.9688L512.734 73.7656C512.734 75.4531 513.328 76.8438 514.516 77.9375C515.703 79.0312 517.328 79.5781 519.391 79.5781ZM580.141 74.9844C580.141 73.3281 579.312 72.0312 577.656 71.0938C576.031 70.125 573.406 69.2656 569.781 68.5156C557.719 65.9844 551.688 60.8594 551.688 53.1406C551.688 48.6406 553.547 44.8906 557.266 41.8906C561.016 38.8594 565.906 37.3438 571.938 37.3438C578.375 37.3438 583.516 38.8594 587.359 41.8906C591.234 44.9219 593.172 48.8594 593.172 53.7031H579.625C579.625 51.7656 579 50.1719 577.75 48.9219C576.5 47.6406 574.547 47 571.891 47C569.609 47 567.844 47.5156 566.594 48.5469C565.344 49.5781 564.719 50.8906 564.719 52.4844C564.719 53.9844 565.422 55.2031 566.828 56.1406C568.266 57.0469 570.672 57.8438 574.047 58.5312C577.422 59.1875 580.266 59.9375 582.578 60.7812C589.734 63.4062 593.312 67.9531 593.312 74.4219C593.312 79.0469 591.328 82.7969 587.359 85.6719C583.391 88.5156 578.266 89.9375 571.984 89.9375C567.734 89.9375 563.953 89.1875 560.641 87.6875C557.359 86.1562 554.781 84.0781 552.906 81.4531C551.031 78.7969 550.094 75.9375 550.094 72.875H562.938C563.062 75.2812 563.953 77.125 565.609 78.4062C567.266 79.6875 569.484 80.3281 572.266 80.3281C574.859 80.3281 576.812 79.8438 578.125 78.875C579.469 77.875 580.141 76.5781 580.141 74.9844ZM618.297 25.8125V38.2812H626.969V48.2188H618.297V73.5312C618.297 75.4062 618.656 76.75 619.375 77.5625C620.094 78.375 621.469 78.7812 623.5 78.7812C625 78.7812 626.328 78.6719 627.484 78.4531V88.7188C624.828 89.5312 622.094 89.9375 619.281 89.9375C609.781 89.9375 604.938 85.1406 604.75 75.5469V48.2188H597.344V38.2812H604.75V25.8125H618.297ZM486.484 184.094C486.484 181.438 485.547 179.406 483.672 178C481.797 176.562 478.422 175.062 473.547 173.5C468.672 171.906 464.812 170.344 461.969 168.812C454.219 164.625 450.344 158.984 450.344 151.891C450.344 148.203 451.375 144.922 453.438 142.047C455.531 139.141 458.516 136.875 462.391 135.25C466.297 133.625 470.672 132.812 475.516 132.812C480.391 132.812 484.734 133.703 488.547 135.484C492.359 137.234 495.312 139.719 497.406 142.938C499.531 146.156 500.594 149.812 500.594 153.906H486.531C486.531 150.781 485.547 148.359 483.578 146.641C481.609 144.891 478.844 144.016 475.281 144.016C471.844 144.016 469.172 144.75 467.266 146.219C465.359 147.656 464.406 149.562 464.406 151.938C464.406 154.156 465.516 156.016 467.734 157.516C469.984 159.016 473.281 160.422 477.625 161.734C485.625 164.141 491.453 167.125 495.109 170.688C498.766 174.25 500.594 178.688 500.594 184C500.594 189.906 498.359 194.547 493.891 197.922C489.422 201.266 483.406 202.938 475.844 202.938C470.594 202.938 465.812 201.984 461.5 200.078C457.188 198.141 453.891 195.5 451.609 192.156C449.359 188.812 448.234 184.938 448.234 180.531H462.344C462.344 188.062 466.844 191.828 475.844 191.828C479.188 191.828 481.797 191.156 483.672 189.812C485.547 188.438 486.484 186.531 486.484 184.094ZM532.609 202.938C525.172 202.938 519.109 200.656 514.422 196.094C509.766 191.531 507.438 185.453 507.438 177.859V176.547C507.438 171.453 508.422 166.906 510.391 162.906C512.359 158.875 515.141 155.781 518.734 153.625C522.359 151.438 526.484 150.344 531.109 150.344C538.047 150.344 543.5 152.531 547.469 156.906C551.469 161.281 553.469 167.484 553.469 175.516V181.047H521.172C521.609 184.359 522.922 187.016 525.109 189.016C527.328 191.016 530.125 192.016 533.5 192.016C538.719 192.016 542.797 190.125 545.734 186.344L552.391 193.797C550.359 196.672 547.609 198.922 544.141 200.547C540.672 202.141 536.828 202.938 532.609 202.938ZM531.062 161.312C528.375 161.312 526.188 162.219 524.5 164.031C522.844 165.844 521.781 168.438 521.312 171.812H540.156V170.734C540.094 167.734 539.281 165.422 537.719 163.797C536.156 162.141 533.938 161.312 531.062 161.312ZM589.703 163.984C587.859 163.734 586.234 163.609 584.828 163.609C579.703 163.609 576.344 165.344 574.75 168.812V202H561.203V151.281H574L574.375 157.328C577.094 152.672 580.859 150.344 585.672 150.344C587.172 150.344 588.578 150.547 589.891 150.953L589.703 163.984ZM616.094 185.453L625.516 151.281H639.672L622.562 202H609.625L592.516 151.281H606.672L616.094 185.453ZM659.969 202H646.375V151.281H659.969V202ZM645.578 138.156C645.578 136.125 646.25 134.453 647.594 133.141C648.969 131.828 650.828 131.172 653.172 131.172C655.484 131.172 657.328 131.828 658.703 133.141C660.078 134.453 660.766 136.125 660.766 138.156C660.766 140.219 660.062 141.906 658.656 143.219C657.281 144.531 655.453 145.188 653.172 145.188C650.891 145.188 649.047 144.531 647.641 143.219C646.266 141.906 645.578 140.219 645.578 138.156ZM692.266 192.016C694.766 192.016 696.797 191.328 698.359 189.953C699.922 188.578 700.734 186.75 700.797 184.469H713.5C713.469 187.906 712.531 191.062 710.688 193.938C708.844 196.781 706.312 199 703.094 200.594C699.906 202.156 696.375 202.938 692.5 202.938C685.25 202.938 679.531 200.641 675.344 196.047C671.156 191.422 669.062 185.047 669.062 176.922V176.031C669.062 168.219 671.141 161.984 675.297 157.328C679.453 152.672 685.156 150.344 692.406 150.344C698.75 150.344 703.828 152.156 707.641 155.781C711.484 159.375 713.438 164.172 713.5 170.172H700.797C700.734 167.547 699.922 165.422 698.359 163.797C696.797 162.141 694.734 161.312 692.172 161.312C689.016 161.312 686.625 162.469 685 164.781C683.406 167.062 682.609 170.781 682.609 175.938V177.344C682.609 182.562 683.406 186.312 685 188.594C686.594 190.875 689.016 192.016 692.266 192.016ZM744.578 202.938C737.141 202.938 731.078 200.656 726.391 196.094C721.734 191.531 719.406 185.453 719.406 177.859V176.547C719.406 171.453 720.391 166.906 722.359 162.906C724.328 158.875 727.109 155.781 730.703 153.625C734.328 151.438 738.453 150.344 743.078 150.344C750.016 150.344 755.469 152.531 759.438 156.906C763.438 161.281 765.438 167.484 765.438 175.516V181.047H733.141C733.578 184.359 734.891 187.016 737.078 189.016C739.297 191.016 742.094 192.016 745.469 192.016C750.688 192.016 754.766 190.125 757.703 186.344L764.359 193.797C762.328 196.672 759.578 198.922 756.109 200.547C752.641 202.141 748.797 202.938 744.578 202.938ZM743.031 161.312C740.344 161.312 738.156 162.219 736.469 164.031C734.812 165.844 733.75 168.438 733.281 171.812H752.125V170.734C752.062 167.734 751.25 165.422 749.688 163.797C748.125 162.141 745.906 161.312 743.031 161.312Z" fill="#283044" fill-opacity="0.1"/>
<path d="M751.5 896.5L0.5 443V54.5L939 647.5V896.5H751.5Z" fill="url(#paint0_linear_525_70)" fill-opacity="0.2"/>
<path d="M906.5 802L83 269.5" stroke="white" stroke-width="20" stroke-linecap="round" stroke-linejoin="round" stroke-dasharray="40 100"/>
<path d="M264.008 468.421L302.997 446.004L302.998 446.007C310.106 442.241 319.237 442.777 329.199 448.528C351.865 461.614 370.239 496.721 370.239 526.942C370.239 543.557 364.678 555.219 355.91 560.193L355.916 560.207L318.482 581.757L264.008 468.421Z" fill="url(#paint1_linear_525_70)"/>
<path d="M418.267 557.767L457.256 535.349L457.257 535.353C464.365 531.587 473.496 532.123 483.458 537.874C506.123 550.96 524.498 586.067 524.498 616.288C524.498 632.903 518.937 644.565 510.169 649.539L510.175 649.552L472.741 671.102L418.267 557.767Z" fill="url(#paint2_linear_525_70)"/>
<path d="M230.233 394.348V207.331L530.398 220.203V407.219C530.399 411.504 528.279 415.789 524.037 418.238L405.128 486.889C396.672 491.772 386.252 491.772 377.796 486.889L236.593 405.366C232.353 402.919 230.233 398.633 230.233 394.348V394.348Z" fill="url(#paint3_linear_525_70)"/>
<path d="M524.037 209.186L382.834 127.662C374.378 122.78 363.958 122.78 355.502 127.662L236.593 196.313C228.111 201.211 228.111 213.452 236.593 218.35L377.796 299.873C386.253 304.756 396.672 304.756 405.129 299.873L524.037 231.222C532.519 226.325 532.519 214.082 524.037 209.186V209.186Z" fill="url(#paint4_linear_525_70)"/>
<path d="M478.254 182.752L326.595 270.312L286.366 247.085L438.024 159.525L478.254 182.752Z" fill="#DEA861"/>
<path d="M454.209 168.857L302.551 256.418L310.431 260.967L462.09 173.408L454.209 168.857Z" fill="#CC8241"/>
<path d="M649.336 485.03L620.584 364.491C617.139 350.049 607.903 337.66 595.045 330.237L533.248 294.514C529.546 292.376 525.32 293 522.378 295.319L414.355 357.686L392.694 370.192L518.061 645.289L645.208 571.882C646.096 571.517 646.932 571.035 647.691 570.447C650.102 568.583 651.733 565.673 651.733 562.193V505.409C651.733 498.546 650.928 491.706 649.336 485.03Z" fill="url(#paint5_linear_525_70)"/>
<path d="M537 562.998L555.11 552.542C556.189 551.919 557.538 552.698 557.538 553.944V569.842C557.538 571.996 556.388 573.988 554.521 575.066L536.411 585.521C535.331 586.144 533.983 585.365 533.983 584.119V568.222C533.984 566.067 535.134 564.076 537 562.998Z" fill="#E9E5F6"/>
<path d="M626.119 511.494L644.229 501.039C645.309 500.416 646.657 501.195 646.657 502.441V518.338C646.657 520.493 645.508 522.485 643.641 523.562L625.53 534.017C624.451 534.641 623.103 533.862 623.103 532.616V516.718C623.103 514.563 624.252 512.572 626.119 511.494Z" fill="#E9E5F6"/>
<path d="M388.862 474.061V377.917C388.862 370.449 396.946 365.781 403.414 369.516L465.211 405.238C478.069 412.662 487.305 425.05 490.75 439.492L519.502 560.031C521.094 566.707 521.898 573.547 521.898 580.41V637.194C521.898 645.248 513.18 650.281 506.205 646.255L242.436 493.496C234.764 489.067 230.038 480.881 230.038 472.022V412.008C230.038 407.161 235.286 404.132 239.483 406.555L372.284 483.609C379.643 487.879 388.862 482.569 388.862 474.061Z" fill="#06DAAE"/>
<path d="M404.825 489.925V391.39L454.698 420.229C459.63 423.076 463.107 427.9 464.25 433.479L485.339 536.455L404.825 489.925Z" fill="url(#paint6_linear_525_70)"/>
<path d="M616.609 374L505.853 437.945L528.616 536.454L639.373 472.509L616.609 374Z" fill="url(#paint7_linear_525_70)"/>
<path d="M404.568 590.661C404.568 560.44 422.942 546.549 445.607 559.635C468.273 572.722 486.647 607.828 486.647 638.049C486.647 668.27 468.272 682.161 445.607 669.075C422.941 655.989 404.568 620.882 404.568 590.661Z" fill="url(#paint8_linear_525_70)"/>
<path d="M461.155 650.223C472.431 645.419 474.687 625.366 466.195 605.435C457.702 585.503 441.676 573.24 430.401 578.045C419.125 582.85 416.868 602.902 425.361 622.833C433.853 642.765 449.879 655.028 461.155 650.223Z" fill="#E9E5F6"/>
<path d="M453.612 632.518C459.356 630.07 460.506 619.854 456.179 609.7C451.853 599.546 443.688 593.298 437.944 595.746C432.199 598.194 431.049 608.41 435.376 618.564C439.703 628.718 447.867 634.966 453.612 632.518Z" fill="#7662BD"/>
<path d="M250.309 501.315C250.309 471.094 268.683 457.203 291.348 470.289C314.014 483.376 332.388 518.483 332.388 548.703C332.388 578.924 314.013 592.815 291.348 579.729C268.682 566.644 250.309 531.536 250.309 501.315Z" fill="url(#paint9_linear_525_70)"/>
<path d="M306.878 560.962C318.154 556.158 320.41 536.105 311.918 516.174C303.425 496.242 287.4 483.98 276.124 488.784C264.848 493.589 262.592 513.641 271.084 533.573C279.577 553.504 295.602 565.767 306.878 560.962Z" fill="#E9E5F6"/>
<path d="M278.331 517.494C278.331 507.908 284.158 503.502 291.348 507.653C298.538 511.804 304.366 522.939 304.366 532.525C304.366 542.112 298.537 546.517 291.348 542.366C284.158 538.216 278.331 527.08 278.331 517.494Z" fill="#7662BD"/>
<path d="M651.372 556.506L518.158 629.444L493.606 617.644V646.201L514.669 658.362C518.387 660.508 522.968 660.508 526.686 658.362L655.399 584.049C657.075 583.082 657.911 581.389 657.911 579.696V551.139L651.372 556.506Z" fill="url(#paint10_linear_525_70)"/>
<path d="M499.304 614.355L521.898 627.399L651.733 552.439V544.671L655.399 546.787C658.749 548.721 658.749 553.558 655.399 555.491L526.686 629.803C522.968 631.95 518.387 631.95 514.669 629.803L493.606 617.643L499.304 614.355Z" fill="#A996EB"/>
<path d="M564.6 577.278L619.046 545.844V555.181C619.046 561.114 615.882 566.596 610.742 569.562L572.778 591.481C569.143 593.58 564.599 590.956 564.599 586.758V577.278H564.6Z" fill="url(#paint11_linear_525_70)"/>
<path d="M149.548 275.327L244.027 329.875C248.854 332.663 251.828 337.814 251.828 343.388C251.828 348.242 246.573 351.277 242.368 348.849L147.89 294.301C143.062 291.514 140.089 286.363 140.089 280.789C140.089 275.934 145.344 272.9 149.548 275.327Z" fill="url(#paint12_linear_525_70)"/>
<path d="M184.085 335.483L278.564 390.03C283.391 392.818 286.365 397.969 286.365 403.543C286.365 408.397 281.11 411.432 276.905 409.004L182.427 354.455C177.599 351.668 174.626 346.517 174.626 340.943C174.626 336.089 179.881 333.055 184.085 335.483V335.483Z" fill="url(#paint13_linear_525_70)"/>
<defs>
<linearGradient id="paint0_linear_525_70" x1="720.5" y1="999.5" x2="-9.5" y2="307" gradientUnits="userSpaceOnUse">
<stop stop-color="#78A1BB"/>
<stop offset="1" stop-color="white" stop-opacity="0"/>
</linearGradient>
<linearGradient id="paint1_linear_525_70" x1="321.049" y1="501.475" x2="304.175" y2="472.248" gradientUnits="userSpaceOnUse">
<stop stop-color="#43386B"/>
<stop offset="1" stop-color="#7662BD"/>
</linearGradient>
<linearGradient id="paint2_linear_525_70" x1="475.308" y1="590.82" x2="458.435" y2="561.594" gradientUnits="userSpaceOnUse">
<stop stop-color="#43386B"/>
<stop offset="1" stop-color="#7662BD"/>
</linearGradient>
<linearGradient id="paint3_linear_525_70" x1="415.455" y1="348.942" x2="374.222" y2="348.942" gradientUnits="userSpaceOnUse">
<stop stop-color="#DEA861"/>
<stop offset="1" stop-color="#CC8241"/>
</linearGradient>
<linearGradient id="paint4_linear_525_70" x1="463.882" y1="165.521" x2="309.465" y2="254.673" gradientUnits="userSpaceOnUse">
<stop stop-color="#DEA861"/>
<stop offset="1" stop-color="#EBCBA0"/>
</linearGradient>
<linearGradient id="paint5_linear_525_70" x1="558.455" y1="483.818" x2="503.537" y2="388.696" gradientUnits="userSpaceOnUse">
<stop stop-color="#236568"/>
<stop offset="0.1516" stop-color="#276A6C"/>
<stop offset="0.3251" stop-color="#337878"/>
<stop offset="0.5094" stop-color="#478E8C"/>
<stop offset="0.7011" stop-color="#62AFA7"/>
<stop offset="0.8968" stop-color="#86D7CA"/>
<stop offset="1" stop-color="#9BF0DF"/>
</linearGradient>
<linearGradient id="paint6_linear_525_70" x1="445.083" y1="531.417" x2="445.083" y2="406.884" gradientUnits="userSpaceOnUse">
<stop stop-color="#43386B"/>
<stop offset="1" stop-color="#7662BD"/>
</linearGradient>
<linearGradient id="paint7_linear_525_70" x1="572.613" y1="530.813" x2="572.613" y2="391.352" gradientUnits="userSpaceOnUse">
<stop stop-color="#43386B"/>
<stop offset="1" stop-color="#7662BD"/>
</linearGradient>
<linearGradient id="paint8_linear_525_70" x1="445.607" y1="690.838" x2="445.607" y2="542.759" gradientUnits="userSpaceOnUse">
<stop stop-color="#43386B"/>
<stop offset="1" stop-color="#7662BD"/>
</linearGradient>
<linearGradient id="paint9_linear_525_70" x1="291.348" y1="601.492" x2="291.348" y2="453.415" gradientUnits="userSpaceOnUse">
<stop stop-color="#43386B"/>
<stop offset="1" stop-color="#7662BD"/>
</linearGradient>
<linearGradient id="paint10_linear_525_70" x1="516.644" y1="605.556" x2="536.461" y2="605.556" gradientUnits="userSpaceOnUse">
<stop stop-color="#43386B"/>
<stop offset="1" stop-color="#7662BD"/>
</linearGradient>
<linearGradient id="paint11_linear_525_70" x1="591.823" y1="590.609" x2="591.823" y2="550.797" gradientUnits="userSpaceOnUse">
<stop stop-color="#43386B"/>
<stop offset="1" stop-color="#594A8E"/>
</linearGradient>
<linearGradient id="paint12_linear_525_70" x1="260.29" y1="351.677" x2="148.044" y2="282.602" gradientUnits="userSpaceOnUse">
<stop stop-color="#43386B"/>
<stop offset="1" stop-color="#7662BD"/>
</linearGradient>
<linearGradient id="paint13_linear_525_70" x1="294.829" y1="411.832" x2="182.581" y2="342.757" gradientUnits="userSpaceOnUse">
<stop stop-color="#43386B"/>
<stop offset="1" stop-color="#7662BD"/>
</linearGradient>
</defs>
</svg>
