<svg width="144" height="147" viewBox="0 0 144 147" fill="none" xmlns="http://www.w3.org/2000/svg">
<path d="M93.8031 1.99635L90.6622 0.177175C90.284 -0.0719421 89.7793 -0.0685681 89.2226 0.252529L2.12003 50.7435C0.949231 51.4195 0 53.2333 0 54.7943V140.211C0 141.103 0.310412 141.717 0.794588 141.956L3.88325 143.738C4.26733 144.032 4.79931 144.045 5.38752 143.705L92.49 93.2147C93.6608 92.5387 94.6101 90.7249 94.6101 89.1638V3.7472C94.6104 2.84774 94.294 2.23057 93.8031 1.99635V1.99635Z" fill="url(#paint0_linear_529_9)"/>
<path d="M92.4901 93.2144L5.38761 143.705C4.21681 144.381 3.26758 143.663 3.26758 142.102V56.6861C3.26758 55.1247 4.21681 53.3112 5.38761 52.6352L92.4901 2.14451C93.6609 1.46858 94.6102 2.18613 94.6102 3.74719V89.1635C94.6102 90.7246 93.6609 92.5384 92.4901 93.2144Z" fill="url(#paint1_linear_529_9)"/>
<path d="M48.939 118.46L92.4904 93.2147C93.6612 92.5388 94.6104 90.7249 94.6104 89.1636V3.74722C94.6104 2.18615 93.6612 1.46832 92.4904 2.14454L48.939 27.3898V118.46Z" fill="#E9E5F6"/>
<path d="M19.1902 64.6357L39.1193 53.1297V58.342L19.1902 69.8481V64.6357Z" fill="white"/>
<path d="M57.3525 72.0987L77.2817 60.5926V65.8047L57.3525 77.311V72.0987Z" fill="#594A8E"/>
<path d="M57.3525 86.6008L77.2817 75.0947V80.3071L57.3525 91.8131V86.6008Z" fill="#594A8E"/>
<path d="M19.1902 109.257L39.1193 97.7506V102.963L19.1902 114.469V109.257Z" fill="white"/>
<path d="M88.441 12.7236V87.3421L9.43675 133.126V58.5075L88.441 12.7236ZM92.4901 2.14454L5.38761 52.6352C4.21681 53.3112 3.26758 55.1247 3.26758 56.6861V142.102C3.26758 143.664 4.21681 144.381 5.38761 143.705L92.4901 93.2144C93.6612 92.5385 94.6102 90.7246 94.6102 89.1636V3.74722C94.6102 2.18615 93.6612 1.46832 92.4901 2.14454V2.14454Z" fill="white"/>
<path d="M3.26758 131.5V142.103C3.26758 142.359 3.3016 142.583 3.34968 142.792L9.43703 131.161V119.712L3.26758 131.5Z" fill="url(#paint2_linear_529_9)"/>
<path d="M33.7321 119.047L27.5505 130.858L36.1518 125.872L42.3328 114.063L33.7321 119.047Z" fill="url(#paint3_linear_529_9)"/>
<path d="M55.415 31.8629L64.0155 26.8789L70.1973 15.0675L61.5957 20.0535L55.415 31.8629Z" fill="url(#paint4_linear_529_9)"/>
<path d="M88.4409 25.9644L94.6101 14.1769V3.74738C94.6101 3.44203 94.5645 3.18026 94.4973 2.94351L88.4409 14.5154V25.9644Z" fill="url(#paint5_linear_529_9)"/>
<path d="M3.26758 97.902L9.43675 86.1148V74.6661L3.26758 86.4536V97.902Z" fill="url(#paint6_linear_529_9)"/>
<path d="M94.6104 48.2629L88.4409 60.0505V71.4992L94.6104 59.7117V48.2629Z" fill="url(#paint7_linear_529_9)"/>
<path d="M21.5752 51.4737L30.1757 46.4894L36.3533 34.6855L27.752 39.6716L21.5752 51.4737Z" fill="url(#paint8_linear_529_9)"/>
<path d="M67.9388 99.2235L61.7612 111.027L70.3628 106.041L76.5396 94.2392L67.9388 99.2235Z" fill="url(#paint9_linear_529_9)"/>
<path d="M10.2795 140.87L18.8811 135.884L25.0641 124.07L16.4636 129.054L10.2795 140.87Z" fill="url(#paint10_linear_529_9)"/>
<path d="M50.8356 109.135L44.656 120.943L53.2573 115.957L59.4363 104.151L50.8356 109.135Z" fill="url(#paint11_linear_529_9)"/>
<path d="M9.43675 97.2875L3.26758 109.075V120.524L9.43675 108.736V97.2875Z" fill="url(#paint12_linear_529_9)"/>
<path d="M72.5183 21.9512L81.1188 16.9668L87.3026 5.15176L78.701 10.1378L72.5183 21.9512Z" fill="url(#paint13_linear_529_9)"/>
<path d="M3.26758 64.0286V75.4773L9.43675 63.6898V58.5078L13.3296 56.2517L19.5055 44.4515L10.9039 49.4375L3.26758 64.0286Z" fill="url(#paint14_linear_529_9)"/>
<path d="M88.4409 37.2827V48.7314L94.6104 36.9439V25.4952L88.4409 37.2827Z" fill="url(#paint15_linear_529_9)"/>
<path d="M94.6101 71.0303L88.4406 82.8179V87.3419L85.0418 89.3115L78.8662 101.112L87.4678 96.1257L94.6101 82.4791V71.0303Z" fill="url(#paint16_linear_529_9)"/>
<path d="M38.5688 41.6253L47.1696 36.6412L53.3492 24.8335L44.7479 29.8195L38.5688 41.6253Z" fill="url(#paint17_linear_529_9)"/>
<path d="M84.8921 42.3197L70.231 50.7841V31.236L84.8921 22.7713V42.3197ZM71.6933 47.9906L83.4303 41.2144V25.565L71.6933 32.3412V47.9906Z" fill="#594A8E"/>
<path d="M70.9622 54.7876C67.6297 56.7114 64.9187 54.6622 64.9187 50.2189C64.9187 45.7758 67.6297 40.5958 70.9622 38.6717C74.2943 36.748 77.0057 38.7974 77.0057 43.2405C77.0057 47.6836 74.2943 52.8636 70.9622 54.7876V54.7876ZM70.9622 40.6214C68.4361 42.0798 66.3808 46.0067 66.3808 49.3748C66.3808 52.7429 68.4359 54.2967 70.9622 52.8383C73.4882 51.3798 75.5436 47.453 75.5436 44.0848C75.5433 40.7164 73.4882 39.163 70.9622 40.6214Z" fill="#FF2741"/>
<path d="M64.675 46.7856L56.1991 51.6791C55.7953 51.9122 55.468 51.6647 55.468 51.1263C55.468 50.5879 55.7953 49.9625 56.1991 49.7295L64.675 44.8359C65.0787 44.6029 65.406 44.8503 65.406 45.3887C65.406 45.9272 65.079 46.5525 64.675 46.7856Z" fill="#FF2741"/>
<path d="M63.359 52.0941L54.8831 56.9876C54.4794 57.2207 54.1521 56.9732 54.1521 56.4348C54.1521 55.8966 54.4794 55.271 54.8831 55.0379L63.359 50.1444C63.7628 49.9113 64.0901 50.1588 64.0901 50.6972C64.0901 51.2356 63.7631 51.861 63.359 52.0941Z" fill="#FF2741"/>
<path d="M64.675 55.8829L56.1991 60.7764C55.7953 61.0095 55.468 60.7621 55.468 60.2237C55.468 59.6855 55.7953 59.0599 56.1991 58.8268L64.675 53.9333C65.0787 53.7002 65.406 53.9476 65.406 54.4861C65.406 55.0245 65.079 55.6499 64.675 55.8829Z" fill="#FF2741"/>
<path d="M29.038 91.1515C25.9108 92.9572 23.3665 91.0337 23.3665 86.8642C23.3665 82.6947 25.9105 77.8335 29.038 76.0281C32.1654 74.2227 34.7095 76.146 34.7095 80.3154C34.7092 84.4849 32.1651 89.3458 29.038 91.1515Z" fill="#FFC538"/>
<path d="M29.0381 74.3645C28.6622 74.5816 28.3577 74.351 28.3577 73.85V70.2203C28.3577 69.7193 28.6625 69.137 29.0381 68.9199C29.414 68.7029 29.7188 68.9334 29.7188 69.4345V73.0641C29.7185 73.5652 29.4137 74.1475 29.0381 74.3645V74.3645Z" fill="#FFC538"/>
<path d="M23.6641 80.4346C23.4901 80.5353 23.3157 80.5471 23.183 80.4467L21.2581 78.9916C20.9924 78.7906 20.9924 78.2162 21.2581 77.7084C21.5238 77.2006 21.9546 76.952 22.2206 77.1528L24.1455 78.6078C24.4115 78.8086 24.4115 79.3833 24.1455 79.8911C24.0122 80.145 23.8381 80.334 23.6641 80.4346Z" fill="#FFC538"/>
<path d="M21.4384 88.8847L18.7161 90.4564C18.3402 90.6735 18.0356 90.4429 18.0356 89.9419C18.0356 89.4408 18.3404 88.8585 18.7161 88.6415L21.4384 87.0697C21.8143 86.8526 22.1188 87.0832 22.1188 87.5842C22.1188 88.0853 21.814 88.6676 21.4384 88.8847Z" fill="#FFC538"/>
<path d="M21.7392 98.4424C21.5652 98.5431 21.3908 98.5549 21.2581 98.4545C20.9924 98.2535 20.9924 97.679 21.2581 97.1712L23.183 93.4933C23.449 92.9855 23.8795 92.7366 24.1455 92.9377C24.4115 93.1384 24.4115 93.7131 24.1455 94.2209L22.2206 97.8989C22.0876 98.1525 21.9135 98.3418 21.7392 98.4424Z" fill="#FFC538"/>
<path d="M29.0381 98.2595C28.6622 98.4766 28.3577 98.246 28.3577 97.745V94.1153C28.3577 93.6143 28.6625 93.032 29.0381 92.8149C29.414 92.5979 29.7188 92.8284 29.7188 93.3295V96.9591C29.7185 97.4604 29.4137 98.0425 29.0381 98.2595Z" fill="#FFC538"/>
<path d="M36.3367 90.0146C36.1627 90.1153 35.9884 90.1271 35.8554 90.0267L33.9305 88.5717C33.6648 88.3709 33.6648 87.7962 33.9305 87.2884C34.1962 86.7803 34.6269 86.5321 34.8929 86.7325L36.8178 88.1876C37.0835 88.3883 37.0835 88.9631 36.8178 89.4709C36.6851 89.7247 36.5108 89.914 36.3367 90.0146V90.0146Z" fill="#FFC538"/>
<path d="M39.3593 78.5378L36.637 80.1096C36.2611 80.3266 35.9563 80.0961 35.9563 79.595C35.9563 79.094 36.2611 78.5117 36.637 78.2946L39.3593 76.7229C39.7352 76.5058 40.0397 76.7361 40.0397 77.2374C40.04 77.7384 39.7352 78.3208 39.3593 78.5378Z" fill="#FFC538"/>
<path d="M34.4116 74.2297C34.2375 74.3304 34.0632 74.3422 33.9305 74.2415C33.6648 74.0408 33.6648 73.466 33.9305 72.9582L35.8554 69.2802C36.1214 68.7724 36.5518 68.5239 36.8178 68.7247C37.0835 68.9254 37.0835 69.5001 36.8178 70.0079L34.8929 73.6859C34.7599 73.9398 34.5859 74.129 34.4116 74.2297Z" fill="#FFC538"/>
<path d="M143.148 119.664V68.4087L60.8811 71.9364V123.192C60.8809 124.366 61.4621 125.541 62.6245 126.212L95.2136 145.027C97.5315 146.366 100.387 146.366 102.705 145.027L141.404 122.684C142.567 122.013 143.148 120.839 143.148 119.664V119.664Z" fill="url(#paint18_linear_529_9)"/>
<path d="M62.6247 68.9167L101.324 46.5736C103.642 45.2354 106.497 45.2354 108.815 46.5736L141.404 65.389C143.729 66.7311 143.729 70.0863 141.404 71.4284L102.705 93.7714C100.387 95.1096 97.5315 95.1096 95.2138 93.7714L62.6247 74.9562C60.2999 73.6141 60.2999 70.2588 62.6247 68.9167Z" fill="url(#paint19_linear_529_9)"/>
<path d="M75.1726 61.6719L116.738 85.6695L127.763 79.3038L86.1982 55.3064L75.1726 61.6719Z" fill="#DEA861"/>
<path d="M81.7625 57.864L123.327 81.8617L121.168 83.1086L79.6028 59.111L81.7625 57.864Z" fill="#CC8241"/>
<path d="M140.395 84.663L136.739 79.1794L133.083 88.8841L135.008 87.7728V91.0601L138.47 89.0617V85.7743L140.395 84.663Z" fill="#5D3645"/>
<path d="M140.395 88.7758L133.083 92.9969V94.775L140.395 90.5539V88.7758Z" fill="#5D3645"/>
<path d="M116.738 85.6696V94.775L127.763 88.4093V79.3039L116.738 85.6696Z" fill="#CC8241"/>
<defs>
<linearGradient id="paint0_linear_529_9" x1="38.8117" y1="86.6898" x2="45.0959" y2="75.8054" gradientUnits="userSpaceOnUse">
<stop stop-color="#C5BAEB"/>
<stop offset="1" stop-color="#E9E5F6"/>
</linearGradient>
<linearGradient id="paint1_linear_529_9" x1="11.3327" y1="138.061" x2="83.2267" y2="13.5367" gradientUnits="userSpaceOnUse">
<stop stop-color="#0197F8"/>
<stop offset="1" stop-color="#79D3FE"/>
</linearGradient>
<linearGradient id="paint2_linear_529_9" x1="3.26751" y1="133.031" x2="9.43692" y2="133.031" gradientUnits="userSpaceOnUse">
<stop offset="0.0161" stop-color="#145EC7"/>
<stop offset="1" stop-color="#2F97F7"/>
</linearGradient>
<linearGradient id="paint3_linear_529_9" x1="27.5506" y1="126.703" x2="42.3329" y2="126.703" gradientUnits="userSpaceOnUse">
<stop offset="0.0161" stop-color="#145EC7"/>
<stop offset="1" stop-color="#2F97F7"/>
</linearGradient>
<linearGradient id="paint4_linear_529_9" x1="55.4153" y1="27.6862" x2="70.1973" y2="27.6862" gradientUnits="userSpaceOnUse">
<stop offset="0.0161" stop-color="#145EC7"/>
<stop offset="1" stop-color="#2F97F7"/>
</linearGradient>
<linearGradient id="paint5_linear_529_9" x1="88.4412" y1="16.158" x2="94.6103" y2="16.158" gradientUnits="userSpaceOnUse">
<stop offset="0.0161" stop-color="#145EC7"/>
<stop offset="1" stop-color="#2F97F7"/>
</linearGradient>
<linearGradient id="paint6_linear_529_9" x1="3.26751" y1="88.027" x2="9.43692" y2="88.027" gradientUnits="userSpaceOnUse">
<stop offset="0.0161" stop-color="#145EC7"/>
<stop offset="1" stop-color="#2F97F7"/>
</linearGradient>
<linearGradient id="paint7_linear_529_9" x1="88.4412" y1="61.6299" x2="94.6103" y2="61.6299" gradientUnits="userSpaceOnUse">
<stop offset="0.0161" stop-color="#145EC7"/>
<stop offset="1" stop-color="#2F97F7"/>
</linearGradient>
<linearGradient id="paint8_linear_529_9" x1="21.5751" y1="47.2996" x2="36.3535" y2="47.2996" gradientUnits="userSpaceOnUse">
<stop offset="0.0161" stop-color="#145EC7"/>
<stop offset="1" stop-color="#2F97F7"/>
</linearGradient>
<linearGradient id="paint9_linear_529_9" x1="61.7613" y1="106.875" x2="76.5397" y2="106.875" gradientUnits="userSpaceOnUse">
<stop offset="0.0161" stop-color="#145EC7"/>
<stop offset="1" stop-color="#2F97F7"/>
</linearGradient>
<linearGradient id="paint10_linear_529_9" x1="10.2798" y1="136.713" x2="25.064" y2="136.713" gradientUnits="userSpaceOnUse">
<stop stop-color="#AB2C37"/>
<stop offset="1" stop-color="#FF4757"/>
</linearGradient>
<linearGradient id="paint11_linear_529_9" x1="44.656" y1="116.789" x2="59.4363" y2="116.789" gradientUnits="userSpaceOnUse">
<stop stop-color="#AB2C37"/>
<stop offset="1" stop-color="#FF4757"/>
</linearGradient>
<linearGradient id="paint12_linear_529_9" x1="3.26751" y1="110.654" x2="9.43692" y2="110.654" gradientUnits="userSpaceOnUse">
<stop stop-color="#AB2C37"/>
<stop offset="1" stop-color="#FF4757"/>
</linearGradient>
<linearGradient id="paint13_linear_529_9" x1="72.5184" y1="17.7731" x2="87.3027" y2="17.7731" gradientUnits="userSpaceOnUse">
<stop stop-color="#AB2C37"/>
<stop offset="1" stop-color="#FF4757"/>
</linearGradient>
<linearGradient id="paint14_linear_529_9" x1="3.26751" y1="64.6079" x2="19.5056" y2="64.6079" gradientUnits="userSpaceOnUse">
<stop stop-color="#AB2C37"/>
<stop offset="1" stop-color="#FF4757"/>
</linearGradient>
<linearGradient id="paint15_linear_529_9" x1="88.4412" y1="38.856" x2="94.6103" y2="38.856" gradientUnits="userSpaceOnUse">
<stop stop-color="#AB2C37"/>
<stop offset="1" stop-color="#FF4757"/>
</linearGradient>
<linearGradient id="paint16_linear_529_9" x1="78.8662" y1="90.5897" x2="94.61" y2="90.5897" gradientUnits="userSpaceOnUse">
<stop stop-color="#AB2C37"/>
<stop offset="1" stop-color="#FF4757"/>
</linearGradient>
<linearGradient id="paint17_linear_529_9" x1="38.569" y1="37.4501" x2="53.3493" y2="37.4501" gradientUnits="userSpaceOnUse">
<stop stop-color="#AB2C37"/>
<stop offset="1" stop-color="#FF4757"/>
</linearGradient>
<linearGradient id="paint18_linear_529_9" x1="92.3841" y1="107.22" x2="103.685" y2="107.22" gradientUnits="userSpaceOnUse">
<stop stop-color="#CC8241"/>
<stop offset="1" stop-color="#DEA861"/>
</linearGradient>
<linearGradient id="paint19_linear_529_9" x1="79.1114" y1="56.9495" x2="121.432" y2="81.3835" gradientUnits="userSpaceOnUse">
<stop stop-color="#DEA861"/>
<stop offset="1" stop-color="#EBCBA0"/>
</linearGradient>
</defs>
</svg>
